<svg xmlns="http://www.w3.org/2000/svg" viewBox="0 0 48 48" fill="none">
  <defs>
    <linearGradient id="g" x1="0%" y1="0%" x2="100%" y2="100%">
      <stop offset="0%" stop-color="#9945FF"/>
      <stop offset="100%" stop-color="#14F195"/>
    </linearGradient>
  </defs>
  <path d="M24 8 C16 8 10 12 10 18 C8 18 6 21 6 24 C6 28 8 30 10 30 C10 36 14 40 20 40 C22 40 24 39 24 38" stroke="url(#g)" stroke-width="2.5" fill="none" stroke-linecap="round"/>
  <path d="M24 8 C32 8 38 12 38 18 C40 18 42 21 42 24 C42 28 40 30 38 30 C38 36 34 40 28 40 C26 40 24 39 24 38" stroke="url(#g)" stroke-width="2.5" fill="none" stroke-linecap="round"/>
  <line x1="24" y1="10" x2="24" y2="38" stroke="url(#g)" stroke-width="1.5" opacity="0.3"/>
  <circle cx="17" cy="20" r="2" fill="url(#g)" opacity="0.5"/>
  <circle cx="31" cy="20" r="2" fill="url(#g)" opacity="0.5"/>
  <circle cx="20" cy="30" r="1.5" fill="url(#g)" opacity="0.4"/>
  <circle cx="28" cy="30" r="1.5" fill="url(#g)" opacity="0.4"/>
  <line x1="17" y1="20" x2="20" y2="30" stroke="url(#g)" stroke-width="1" opacity="0.3"/>
  <line x1="31" y1="20" x2="28" y2="30" stroke="url(#g)" stroke-width="1" opacity="0.3"/>
  <line x1="17" y1="20" x2="31" y2="20" stroke="url(#g)" stroke-width="1" opacity="0.2"/>
</svg>